<svg xmlns="http://www.w3.org/2000/svg" 
width="32" height="32">
<path fill-rule="evenodd"  fill="rgb(149, 225, 211)"
 d="M31.065 25.889l-14.471 5.988a1.489 1.489 0 01-1.188 0L.935 25.889A1.5 1.5 0 010 24.5v-23A1.5 1.5 0 012.073.114h.001l.002.001.013.005L16 5.876 29.911.12l.013-.005.003-.001A1.5 1.5 0 0132 1.5v23a1.5 1.5 0 01-.935 1.389zM14.5 8.503L3 3.744v19.753l11.5 4.759V8.503zM29 3.744L17.5 8.503v19.753L29 23.497V3.744zm-9.121 6.89l5.5-2.5a1.5 1.5 0 011.242 2.731l-5.5 2.5a1.5 1.5 0 01-1.242-2.731zm0 5.5l5.5-2.5a1.5 1.5 0 111.242 2.731l-5.5 2.5a1.5 1.5 0 01-1.242-2.731zm0 5.5l5.5-2.5a1.5 1.5 0 011.242 2.731l-5.5 2.5a1.5 1.5 0 01-1.242-2.731zM6 8c.221 0 .431.048.621.134l5.5 2.5a1.501 1.501 0 01-1.242 2.731l-5.5-2.5A1.5 1.5 0 016 8zm0 5.5c.221 0 .431.048.621.134l5.5 2.5a1.501 1.501 0 01-1.242 2.731l-5.5-2.5A1.5 1.5 0 016 13.5zM6 19c.221 0 .431.048.621.134l5.5 2.5a1.501 1.501 0 01-1.242 2.731l-5.5-2.5A1.5 1.5 0 016 19z"/></svg>