<svg xmlns="http://www.w3.org/2000/svg" width="26" height="26"><path d="M22.7 25.8H3.5a3.2 3.2 0 01-3.2-3.201V3.4A3.2 3.2 0 013.5.199h19.2A3.2 3.2 0 0125.9 3.4v19.199a3.2 3.2 0 01-3.2 3.201zM13.1 8.039a4.957 4.957 0 00-4.498 2.88h-.005l-.022.055a5.23 5.23 0 00-.128.321c-.019.053-.04.104-.057.156a4.386 4.386 0 00-.095.34c-.014.053-.03.106-.042.16a4.952 4.952 0 00-.061.368c-.007.05-.017.099-.023.15a4.96 4.96 0 109.862 0c-.006-.051-.016-.1-.023-.15a4.952 4.952 0 00-.061-.368c-.012-.054-.028-.107-.042-.16a4.386 4.386 0 00-.095-.34c-.017-.052-.038-.103-.057-.156a5.23 5.23 0 00-.128-.321l-.022-.055h-.005a4.957 4.957 0 00-4.498-2.88zm9.92-3.68a1.28 1.28 0 00-1.28-1.279h-2.56a1.28 1.28 0 00-1.28 1.279V6.92c0 .707.573 1.28 1.28 1.28h2.56a1.28 1.28 0 001.28-1.28V4.359zm0 6.56h-2.36a7.839 7.839 0 01-7.56 9.92 7.839 7.839 0 01-7.56-9.92H3.18v10.72a1.28 1.28 0 001.28 1.281h17.28a1.28 1.28 0 001.28-1.281v-10.72z"/></svg>