<svg xmlns="http://www.w3.org/2000/svg" viewBox="0 0 50 62.5"><path d="M4 42.656h16.052a4.904 4.904 0 004.436 2.777h1.014a4.903 4.903 0 004.437-2.777H46c1.654 0 3-1.345 3-3v-28.75c0-1.654-1.346-3-3-3h-1.62v-1.34c0-1.102-.898-2-2-2H7.61c-1.102 0-2 .898-2 2v1.34H4c-1.654 0-3 1.346-3 3v28.75c0 1.655 1.346 3 3 3zm38.378-6.17H26V13.25c3.786.495 6.72 3.734 6.72 7.652v.902l-.237-.052a1 1 0 00-1.191.762L29.7 29.756a1 1 0 00.762 1.19l3.44.758c.178.037.359.057.54.057 1.21 0 2.24-.828 2.503-2.015l.921-4.19a2.564 2.564 0 00-1.948-3.05l-1.197-.263V20.9c0-5.023-3.83-9.169-8.721-9.673V6.567h16.38l-.002 29.92zM33.03 23.92l2.456.541c.307.069.494.36.427.667l-.92 4.189a.592.592 0 01-.667.434l-2.459-.542 1.163-5.289zM7.61 6.567H24v4.66c-4.897.5-8.73 4.647-8.73 9.674v1.342l-1.2.265a2.544 2.544 0 00-1.604 1.12 2.533 2.533 0 00-.341 1.928l.919 4.184a2.57 2.57 0 003.052 1.963l3.425-.756a1 1 0 00.761-1.19l-1.592-7.245a.998.998 0 00-1.192-.761l-.228.05v-.9c0-3.922 2.94-7.163 6.73-7.654v23.24H7.61V6.567zm9.342 17.353l1.164 5.289-2.445.54a.568.568 0 01-.672-.43l-.92-4.195a.547.547 0 01.071-.418.56.56 0 01.352-.245l2.45-.54zM3 10.906c0-.55.448-1 1-1h1.61v26.58c0 1.104.898 2 2 2h34.77c1.102 0 2-.896 2-2V9.907H46c.552 0 1 .45 1 1v28.75c0 .552-.448 1-1 1H29.26a1 1 0 00-.956.707 2.915 2.915 0 01-2.802 2.07h-1.014a2.925 2.925 0 01-2.805-2.082 1 1 0 00-.953-.695H4c-.552 0-1-.448-1-1v-28.75z"/></svg>