<svg xmlns="http://www.w3.org/2000/svg" viewBox="0 0 67 83.75"><path fill="#ff6b08" d="M5.787 65.502h55.48c.275-6.3-.178-16.752-4.068-21.727l-.141-.179-8.5-4.25c.184-.62.275-1.187.311-1.605a2.933 2.933 0 00-.207-1.398c-1.402-3.341-4.37-5.1-6.002-5.849.498-.998.819-2.069.973-3.163a2.72 2.72 0 001.911-1.961l.992-4.014a2.706 2.706 0 00-.312-2.067 2.71 2.71 0 00-.609-.69c2.798-6.327-1.888-12.293-2.143-12.607C38.398.53 31.988 1.551 31.649 1.612c-9.25 1.928-12.82 8.988-10.805 17.267a2.71 2.71 0 00-.627 2.476l.997 4.018c.242.965.98 1.692 1.897 1.954a10.318 10.318 0 002.386 5.28v3.181c-13.274 6.77-4.863 2.45-15.502 7.81-.02.1-4.991 5.36-4.252 20.952l.044.952zm53.552-2h-9.13v-3.819l6.038-13.766c3.026 5 3.138 14.547 3.092 17.585zm-12.462-25.93c-.352 4.03-2.572 2.811-3.942 5.917-1.078-1.18-1.402-2.595-1.112-4.11.523-2.781-1.182-3.608-.76-6.53l.063-.067v-.01c.037-.04.373-.438.47-.564 3.613 1.568 5.352 4.484 5.281 5.363zm-19.38-3.169a10.315 10.315 0 005.88 1.843c2.05 0 3.998-.594 5.667-1.688.232 2.297 1.134 2.757.814 4.448-.06.314-.093.623-.112.927l-6.218 6.979-7.95-8.924 1.92-.998v-2.587zm-2.5-8.54v-3.87-6.798c.968-1.782 2.288-3.074 3.927-3.85 4.392 2.475 9.446 6.167 12.836 9.883-.003 4.732.014 4.745-.018 5.134l-.002.025c-.265 4.297-3.813 7.859-8.364 7.859-4.423 0-8.096-3.458-8.362-7.902a5.616 5.616 0 01-.017-.481zm-1.238 13.09l9.769 10.965 6.558-7.36c.15.43.36.836.6 1.228l-7.158 8.915-10.676-13.295.907-.453zm20.001-14.7v-3.089l.746-.851c.04 1.564.21-.282-.746 3.94zM32.02 3.577c.397.024 5.727-.808 9.94 3.721.166.208 3.596 4.607 2.218 9.42-.472-2.141-1.294-4.886-2.593-6.196l-1.42 1.409c1.283 1.293 2.126 5.232 2.446 7.275-5.883-6.13-13.472-10.01-13.576-10.076-.381.236-3.593.844-5.925 5.358l-.112.216v3.315l-.294.003C21.221 10.897 24.06 5.238 32.02 3.577zm-9.526 16.502l.504 2.037v2.14l-.838-3.381c-.124-.504.251-.695.334-.796zm-1.47 20.242l12.505 15.574 8.46-10.537c.921.82 1.364.936 3.315 1.935l-.658-2.223c-.167-.564.494-1.47.893-1.886a6.04 6.04 0 002.19-2.016l6.904 3.452-6.424 14.644v4.238H18.846v-4.238L12.42 44.62l8.603-4.3zm-10.217 5.6l6.04 13.763v3.818h-9.13c-.047-3.037.067-12.58 3.09-17.58z"/></svg>