<svg xmlns="http://www.w3.org/2000/svg" viewBox="0 0 8472 12330" fill-rule="evenodd" clip-rule="evenodd" shape-rendering="geometricPrecision" text-rendering="geometricPrecision" image-rendering="optimizeQuality"><defs><style>.fil0{fill:#000;fill-rule:nonzero}</style></defs><path class="fil0" fill="#ff6b08" d="M167 4236c0 110-167 110-167 0C0 1897 1897 0 4236 0c2340 0 4236 1897 4236 4236 0 110-166 110-166 0 0-1581-2598-1582-2598 0 0 110-171 110-171 0 0-1577-2602-1577-2602 0 0 110-171 110-171 0 0-1574-2597-1585-2597 0zm2612-614c45-910 188-1726 396-2349 166-495 376-871 614-1082C2003 386 557 1740 234 3496c615-887 2035-816 2545 126zm2745-41c-46-875-185-1658-385-2255-516-1545-1290-1545-1806 0-200 597-338 1380-385 2255 555-943 2021-943 2576 0zm2714-85C7916 1740 6470 386 4683 191c239 211 448 587 614 1082 208 623 351 1439 396 2349 513-947 1937-1003 2545-126zM3680 6174v-860c-155 103-277 262-277 456 0 189 124 314 277 404zm167 267c-297-136-610-295-610-671 0-388 295-582 610-727v1398zM4792 7472v870c157-104 280-264 280-458 0-191-126-320-280-412zm-166-268c298 138 613 302 613 680 0 389-297 583-613 727V7204z"/><path fill="#ff6b08" class="fil0" d="M4792 4335c684 158 1387 670 1387 1435 0 655-1107 631-1107 0 0-195-123-355-280-458v1224c633 207 1389 578 1389 1348 0 766-703 1277-1389 1434-3 729-1110 728-1112-1-390-90-729-272-974-513-257-254-409-573-409-920 0-645 1106-645 1106 0 0 193 122 352 277 455V7116c-628-203-1388-585-1388-1348 0-766 703-1277 1388-1434 3-729 1110-728 1112 1zm-945 2v133c-651 129-1389 546-1389 1298 0 723 810 1047 1389 1226v1616c-313-143-610-336-610-726 0-426-774-426-774 0 0 301 134 579 360 801 287 284 635 419 1024 496v134c0 513 779 513 779 0v-133c653-130 1388-547 1388-1298 0-730-808-1044-1388-1227V5042c314 143 613 336 613 728 0 415 773 432 773 0 0-751-734-1169-1386-1299v-134c0-513-779-513-779 0z"/></svg>