<svg xmlns="http://www.w3.org/2000/svg" viewBox="0 0 67 83.75"><path d="M9.733 16.768h20.033v1.5H9.733zM12.733 22.361h17.033v1.5H12.733zM9.733 27.954h20.033v1.5H9.733zM12.733 33.547h17.033v1.5H12.733zM9.733 39.139h20.033v1.5H9.733zM12.733 44.733h17.033v1.5H12.733zM37.233 16.768h20.033v1.5H37.233zM37.233 22.361h17.033v1.5H37.233zM37.233 27.954h20.033v1.5H37.233zM37.233 33.547h17.033v1.5H37.233zM37.233 39.139h20.033v1.5H37.233zM37.233 44.733h17.033v1.5H37.233z"/><path d="M64.5 15.06h-2.75v-4.13a.75.75 0 00-.75-.75H38.58a5.8 5.8 0 00-5.08 2.953 5.802 5.802 0 00-5.08-2.953H6a.75.75 0 00-.75.75v4.13H2.5a.75.75 0 00-.75.75v40.26c0 .414.336.75.75.75h62a.75.75 0 00.75-.75V15.81a.75.75 0 00-.75-.75zm-25.92-3.38h21.67v40.17H36.98c-1.032 0-2.063.435-2.73 1V16a4.306 4.306 0 014.33-4.32zm-31.83 0h21.67a4.294 4.294 0 014.32 4.155c.002.032.005.134.01.165V52.846c-.665-.561-1.686-.996-2.72-.996H6.75V11.68zm-3.5 4.88h2V52.6c0 .414.336.75.75.75h24.03a2.72 2.72 0 012.602 1.97H3.25V16.56zm60.5 38.76H34.369a2.71 2.71 0 012.611-1.97H61a.75.75 0 00.75-.75V16.56h2v38.76z"/></svg>