<svg aria-hidden="true" style="position: absolute; width: 0; height: 0; overflow: hidden;" version="1.1" xmlns="http://www.w3.org/2000/svg" xmlns:xlink="http://www.w3.org/1999/xlink">
<defs>
<symbol id="icon-Audio_Book" viewBox="0 0 26 26">
<path d="M2.048 21.84h8.219c0.415 0.848 1.272 1.422 2.262 1.422 0.003 0 0.006 0 0.009-0h0.519c0.003 0 0.006 0 0.010 0 0.991 0 1.847-0.574 2.256-1.407l0.007-0.015h8.223c0.847 0 1.536-0.689 1.536-1.536v-14.72c0-0.847-0.689-1.536-1.536-1.536h-0.829v-0.686c0-0.564-0.46-1.024-1.024-1.024h-17.802c-0.564 0-1.024 0.46-1.024 1.024v0.686h-0.824c-0.847 0-1.536 0.689-1.536 1.536v14.72c0 0.847 0.689 1.536 1.536 1.536zM21.698 18.681h-8.386v-11.897c1.938 0.253 3.441 1.912 3.441 3.918v0.462l-0.121-0.027c-0.033-0.008-0.071-0.012-0.11-0.012-0.244 0-0.448 0.17-0.499 0.399l-0.001 0.003-0.815 3.708c-0.008 0.033-0.012 0.071-0.012 0.109 0 0.244 0.17 0.448 0.399 0.499l0.003 0.001 1.761 0.388c0.091 0.019 0.184 0.029 0.276 0.029 0.62 0 1.147-0.424 1.282-1.032l0.472-2.145c0.019-0.084 0.030-0.181 0.030-0.28 0-0.624-0.435-1.146-1.019-1.28l-0.009-0.002-0.613-0.135v-0.688c0-2.572-1.961-4.695-4.465-4.953v-2.386h8.387l-0.001 15.319zM16.911 12.247l1.257 0.277c0.157 0.035 0.253 0.184 0.219 0.341l-0.471 2.145c-0.035 0.131-0.153 0.226-0.293 0.226-0.017 0-0.034-0.001-0.050-0.004l0.002 0-1.259-0.277 0.595-2.708zM3.896 3.362h8.392v2.386c-2.507 0.256-4.47 2.379-4.47 4.953v0.687l-0.614 0.136c-0.347 0.078-0.636 0.285-0.818 0.568l-0.003 0.005c-0.129 0.198-0.206 0.441-0.206 0.702 0 0.101 0.012 0.2 0.033 0.294l-0.002-0.009 0.471 2.142c0.134 0.596 0.658 1.035 1.285 1.035 0.098 0 0.194-0.011 0.286-0.031l-0.009 0.002 1.754-0.387c0.231-0.052 0.401-0.256 0.401-0.5 0-0.039-0.004-0.076-0.012-0.113l0.001 0.003-0.815-3.709c-0.052-0.231-0.256-0.402-0.499-0.402-0.039 0-0.078 0.004-0.115 0.013l0.003-0.001-0.117 0.026v-0.461c0-2.008 1.505-3.667 3.446-3.919v11.899h-8.392v-15.319zM8.679 12.247l0.596 2.708-1.252 0.276c-0.018 0.004-0.039 0.006-0.060 0.006-0.138 0-0.253-0.096-0.283-0.225l-0-0.002-0.471-2.148c-0.005-0.019-0.007-0.041-0.007-0.064 0-0.056 0.016-0.108 0.044-0.151l-0.001 0.001c0.041-0.063 0.104-0.108 0.178-0.125l0.002-0 1.254-0.276zM1.536 5.584c0-0.282 0.229-0.512 0.512-0.512h0.824v13.609c0 0.565 0.46 1.024 1.024 1.024h17.802c0.564 0 1.024-0.459 1.024-1.024v-13.608h0.829c0.283 0 0.512 0.23 0.512 0.512v14.72c0 0.283-0.229 0.512-0.512 0.512h-8.571c-0.229 0-0.423 0.151-0.489 0.358l-0.001 0.004c-0.192 0.618-0.758 1.060-1.428 1.060-0.002 0-0.004 0-0.007 0h-0.519c-0.001 0-0.001 0-0.002 0-0.673 0-1.243-0.444-1.431-1.055l-0.003-0.011c-0.068-0.208-0.261-0.356-0.488-0.356-0 0-0 0-0 0h-8.566c-0.283 0-0.512-0.229-0.512-0.512v-14.72z"></path>
</symbol>
<symbol id="icon-Campfire" viewBox="0 0 26 26">
<path d="M20.635 13.26c-0.218-0.493-0.52-0.979-0.96-1.54-1.111-1.408-1.449-4.548-1.453-4.578-0.021-0.191-0.181-0.338-0.376-0.338-0.112 0-0.213 0.049-0.283 0.127l-0 0c-1.325 1.495-0.768 3.802-0.467 4.725 0.083 0.252 0.173 0.55 0.237 0.851 0.489 2.436-0.456 3.539-0.678 3.761-0.215 0.060-0.361 0.030-0.497-0.117-0.467-0.516-0.621-2.206-0.403-4.408 0.045-0.448 0.034-0.851-0.030-1.227-0.46-2.707-2.149-4.443-2.579-5.052-1.182-1.762-1.303-4.695-1.306-4.721-0.003-0.142-0.086-0.264-0.205-0.323l-0.002-0.001c-0.049-0.025-0.107-0.040-0.168-0.040-0.079 0-0.153 0.025-0.214 0.067l0.001-0.001c-1.973 1.352-1.803 4.608-1.528 6.426 0.064 0.422 0.188 0.851 0.403 1.393 0.764 1.939-0.151 4.442-0.158 4.465s-0.015 0.041-0.019 0.064c-0.117 0.617-0.312 0.986-0.531 0.986-0.026-0-0.050-0.005-0.073-0.012l0.002 0.001c-0.267-0.056-0.407-0.343-0.41-0.591-0.015-3.211-3.211-4.292-3.245-4.303s-0.074-0.018-0.115-0.018c-0.113 0-0.215 0.051-0.283 0.131l-0 0.001c-0.058 0.065-0.093 0.152-0.093 0.246 0 0.061 0.015 0.119 0.041 0.17l-0.001-0.002c0.038 0.079 0.158 0.425 0.075 1.649-0.079 1.181-0.289 2.282-0.618 3.33l0.027-0.1c-0.76 2.5-0.64 4.868-0.632 4.981 0.585 6.411 9.729 7.535 15.157 3.923 0.595-0.395 1.080-0.847 1.438-1.344 2.003-2.786 0.824-6.569-0.053-8.58zM6.725 19.386c0 0.006 0.001 0.014 0.001 0.021 0 0.2-0.156 0.363-0.353 0.374l-0.001 0h-0.023c-0.2 0-0.365-0.154-0.376-0.354-0.034-0.55-0.026-1.126 0.015-1.751 0.015-0.207 0.196-0.361 0.403-0.35 0.207 0.015 0.365 0.196 0.35 0.403-0.041 0.595-0.049 1.137-0.015 1.656zM6.909 16.050c-0.023 0.192-0.184 0.331-0.373 0.331-0.015 0-0.030 0-0.049-0.004-0.203-0.026-0.35-0.211-0.328-0.418l0.181-1.453c0.026-0.203 0.211-0.35 0.422-0.328 0.207 0.026 0.354 0.215 0.328 0.422l-0.181 1.449zM18.088 5.527c-0.182-0.029-0.319-0.184-0.319-0.372 0-0.020 0.002-0.040 0.005-0.059l-0 0.002c0.024-0.153 0.16-0.936 0.529-1.33 0.069-0.073 0.166-0.119 0.275-0.119 0.208 0 0.376 0.169 0.376 0.376 0 0.1-0.039 0.19-0.102 0.258l0-0c-0.156 0.167-0.289 0.644-0.334 0.93-0.029 0.181-0.185 0.318-0.372 0.318-0.020 0-0.041-0.002-0.060-0.005l0.002 0zM4.364 7.402c-0.072-0.28-0.251-0.742-0.423-0.892-0.081-0.069-0.133-0.172-0.133-0.287 0-0.208 0.169-0.376 0.376-0.376 0.097 0 0.186 0.037 0.253 0.097l-0-0c0.406 0.355 0.617 1.122 0.656 1.271 0.008 0.028 0.012 0.060 0.012 0.094 0 0.208-0.169 0.377-0.377 0.377-0.175 0-0.322-0.119-0.364-0.28l-0.001-0.003z"></path>
</symbol>
<symbol id="icon-Check" viewBox="0 0 26 26">
<path d="M20.463 5.365c-0.762 0.341-1.492 0.757-2.189 1.221-1.401 0.922-2.683 2.020-3.885 3.191-1.201 1.174-2.32 2.43-3.377 3.736-0.265 0.327-1.449 1.781-1.449 1.781l-4.925-7.38-1.859 5.153 6.66 7.943c0.647-1.309 1.269-2.602 1.88-3.725 0.152-0.286 0.311-0.555 0.463-0.827 0 0 0.781-1.374 0.987-1.72 0.822-1.384 1.71-2.732 2.689-4.013 0.979-1.279 2.044-2.499 3.251-3.572 0.6-0.54 1.24-1.039 1.925-1.474 0.684-0.435 1.41-0.817 2.187-1.091-0.808 0.159-1.597 0.435-2.357 0.777z"></path>
</symbol>
<symbol id="icon-Female_Student" viewBox="0 0 26 26">
<path d="M2.211 25.028h21.198c0.105-2.407-0.068-6.401-1.554-8.302l-0.054-0.068-3.248-1.624c0.070-0.237 0.105-0.454 0.119-0.613 0.003-0.032 0.005-0.070 0.005-0.108 0-0.154-0.031-0.3-0.087-0.434l0.003 0.007c-0.536-1.277-1.67-1.949-2.293-2.235 0.19-0.381 0.313-0.791 0.372-1.209 0.36-0.102 0.637-0.385 0.729-0.742l0.002-0.007 0.379-1.534c0.020-0.076 0.031-0.163 0.031-0.253 0-0.199-0.056-0.384-0.153-0.542l0.003 0.004c-0.064-0.103-0.141-0.19-0.231-0.262l-0.002-0.002c1.069-2.417-0.721-4.697-0.819-4.817-1.939-2.087-4.388-1.697-4.517-1.674-3.534 0.737-4.898 3.434-4.128 6.598-0.167 0.183-0.27 0.428-0.27 0.697 0 0.088 0.011 0.174 0.032 0.256l-0.002-0.007 0.381 1.535c0.092 0.369 0.374 0.646 0.725 0.747 0.113 0.78 0.438 1.468 0.916 2.023l-0.004-0.005v1.215c-5.072 2.587-1.858 0.936-5.923 2.984-0.008 0.038-1.907 2.048-1.625 8.006l0.017 0.364zM22.673 24.263h-3.488v-1.459l2.307-5.26c1.156 1.91 1.199 5.558 1.181 6.719zM17.911 14.356c-0.134 1.54-0.983 1.074-1.506 2.261-0.412-0.451-0.536-0.992-0.425-1.57 0.2-1.063-0.452-1.379-0.29-2.495l0.024-0.026v-0.004c0.014-0.015 0.143-0.167 0.18-0.216 1.381 0.599 2.045 1.713 2.018 2.049zM10.506 13.145c0.627 0.44 1.406 0.704 2.247 0.704h0c0.783 0 1.528-0.227 2.165-0.645 0.089 0.878 0.433 1.053 0.311 1.7-0.023 0.12-0.036 0.238-0.043 0.354l-2.376 2.667-3.038-3.41 0.734-0.381v-0.988zM9.551 9.882v-4.076c0.37-0.681 0.874-1.175 1.5-1.471 1.678 0.946 3.609 2.356 4.904 3.776-0.001 1.808 0.005 1.813-0.007 1.962l-0.001 0.010c-0.101 1.642-1.457 3.003-3.196 3.003-1.69 0-3.093-1.321-3.195-3.019-0.004-0.050-0.007-0.109-0.007-0.168 0-0.006 0-0.011 0-0.017v0.001zM9.078 14.884l3.733 4.19 2.506-2.812c0.057 0.164 0.138 0.319 0.229 0.469l-2.735 3.406-4.079-5.080 0.347-0.173zM16.72 9.267v-1.18l0.285-0.325c0.015 0.598 0.080-0.108-0.285 1.505zM12.235 1.367c0.152 0.009 2.188-0.309 3.798 1.422 0.063 0.079 1.374 1.76 0.847 3.599-0.18-0.818-0.494-1.867-0.991-2.367l-0.543 0.538c0.49 0.494 0.812 1.999 0.935 2.78-2.248-2.342-5.148-3.825-5.187-3.85-0.146 0.090-1.373 0.322-2.264 2.047l-0.043 0.083v1.267l-0.112 0.001c-0.567-2.722 0.518-4.885 3.56-5.519zM8.595 7.672l0.193 0.778v0.818l-0.32-1.292c-0.047-0.193 0.096-0.266 0.128-0.304zM8.033 15.406l4.778 5.951 3.232-4.026c0.352 0.313 0.521 0.358 1.267 0.739l-0.251-0.849c-0.064-0.215 0.189-0.562 0.341-0.721 0.343-0.188 0.624-0.448 0.831-0.762l0.005-0.009 2.638 1.319-2.455 5.595v1.619h-11.219v-1.619l-2.455-5.595 3.287-1.643zM4.129 17.546l2.308 5.259v1.459h-3.488c-0.018-1.16 0.026-4.807 1.181-6.717z"></path>
</symbol>
<symbol id="icon-global_communication" viewBox="0 0 26 26">
<path d="M1.918 10.148v2.182c0 0.117 0.054 0.227 0.146 0.3 1.436 1.133 3.272 1.818 5.268 1.82h0c0.571 0 1.142-0.060 1.7-0.172 1.104 0.502 2.395 0.795 3.753 0.795 0.005 0 0.010 0 0.015 0h-0.001c1.316 0 2.583-0.269 3.768-0.795 2.382 0.481 4.919-0.036 6.968-1.648 0.092-0.073 0.146-0.183 0.146-0.301v-2.182c0-0.32-0.159-0.612-0.443-0.791l-2.98-1.677c0.652-0.827 1.138-2.005 1.222-3.015 0.247-1.739-1.17-3.58-3.21-3.58-0.858 0-1.674 0.353-2.272 0.945-0.021 0.021-0.044 0.038-0.064 0.059-0.019 0.019-0.034 0.042-0.051 0.062-0.012 0.013-0.023 0.027-0.034 0.041-0.583-1.063-1.703-1.72-3.024-1.72-0.128 0-0.254 0.009-0.379 0.022-0.008-0.001-0.014-0.005-0.022-0.005-0.108 0.004-0.212 0.019-0.311 0.044l0.010-0.002c-0.012 0.003-0.021 0.011-0.032 0.016-0.998 0.202-1.825 0.812-2.313 1.645l-0.009 0.016c-0.594-0.689-1.467-1.123-2.442-1.123-0.003 0-0.005 0-0.008 0h0c-3.012 0-4.348 3.553-1.971 6.612l-3.007 1.67c-0.258 0.166-0.426 0.451-0.426 0.775 0 0.002 0 0.004 0 0.006v-0zM16.561 13.438c-0.065 0.032-0.129 0.065-0.194 0.095l-0.002 0.001c-1.039 0.489-2.257 0.775-3.541 0.775-0.009 0-0.017 0-0.026-0h0.001c-0.006 0-0.013 0-0.019 0-1.933 0-3.716-0.645-5.144-1.732l0.021 0.015v-2.212c0-0.075 0.037-0.142 0.079-0.17l3.5-1.945c0.436 0.369 0.992 0.641 1.568 0.641 0.555 0 1.155-0.275 1.581-0.65l3.457 1.941c0.061 0.038 0.101 0.105 0.101 0.181 0 0.001 0 0.001 0 0.002v-0 2.211c-0.401 0.304-0.854 0.586-1.332 0.824l-0.050 0.022zM22.847 10.012c0.043 0.028 0.071 0.076 0.071 0.131 0 0.002-0 0.004-0 0.006v-0 1.993c-1.517 1.139-3.342 1.655-5.191 1.525 0.322-0.204 0.594-0.397 0.856-0.602l-0.022 0.017c0.092-0.073 0.146-0.183 0.146-0.301v-2.4c0-0.335-0.168-0.644-0.47-0.837l-1.837-1.032 0.447-0.247c0.541 0.442 1.007 0.573 1.424 0.573 0.51 0 1.048-0.251 1.447-0.585l3.129 1.76zM18.271 1.849c1.064 0 1.998 0.695 2.328 1.651-0.642-0.076-1.269-0.393-1.723-0.88-0.070-0.075-0.169-0.122-0.279-0.122-0.139 0-0.26 0.074-0.327 0.184l-0.001 0.002c-0.436 0.73-1.15 1.218-1.963 1.356v-0.003c0-0.019 0.001-0.041 0.001-0.064 0-0.155-0.009-0.307-0.028-0.457l0.002 0.018-0.006-0.051c-0.025-0.191-0.082-0.431-0.094-0.469 0.434-0.695 1.24-1.166 2.090-1.166zM16.222 4.82c0.995-0.111 1.854-0.614 2.432-1.35l0.006-0.008c0.591 0.485 1.341 0.779 2.082 0.814-0.006 1.381-1.134 3.797-2.471 3.797-1.030 0-1.91-1.474-2.239-2.495 0.084-0.263 0.144-0.516 0.189-0.758zM16.299 7.694l-0.683 0.378-0.689-0.387c0.254-0.317 0.483-0.674 0.675-1.054l0.016-0.035c0.199 0.419 0.426 0.779 0.69 1.109l-0.009-0.011zM15.269 5.453c-0.369 1.099-1.314 2.69-2.465 2.69-1.343 0-2.486-2.207-2.704-3.618 0.058-0.015 1.872 0.097 3.121-1.542 0.633 0.53 1.488 0.881 2.32 0.915 0.010 0.498-0.111 1.084-0.271 1.555zM12.826 1.235c2.142 0 2.55 1.844 2.583 1.882-0.776-0.079-1.485-0.459-1.975-0.983-0.070-0.075-0.169-0.121-0.279-0.121-0.139 0-0.261 0.075-0.328 0.186l-0.001 0.002c-0.424 0.718-1.090 1.224-1.86 1.439-0.264 0.075-0.566 0.119-0.879 0.119-0.007 0-0.014-0-0.020-0h0.001c0.105-1.404 1.23-2.523 2.759-2.523zM9.984 6.588c0.21 0.422 0.444 0.785 0.712 1.12l-0.009-0.012-0.674 0.375-0.699-0.393c0.247-0.317 0.471-0.675 0.655-1.055l0.016-0.036zM7.322 1.849c0.867 0 1.661 0.439 2.103 1.167-0.022 0.077-0.082 0.384-0.090 0.422-0.557-0.138-1.035-0.425-1.402-0.817l-0.001-0.002c-0.070-0.075-0.169-0.121-0.279-0.121-0.139 0-0.261 0.075-0.328 0.186l-0.001 0.002c-0.506 0.84-1.412 1.395-2.447 1.398h-0.001c0.122-1.253 1.17-2.234 2.445-2.234zM4.91 4.846c1.136-0.014 2.145-0.549 2.801-1.376l0.006-0.008c0.439 0.361 0.974 0.621 1.561 0.737l0.023 0.004c0.023 0.443 0.138 0.981 0.27 1.378-0.211 0.647-0.616 1.418-1.118 1.931-0.003 0.003-0.008 0.005-0.010 0.008-0.314 0.331-0.761 0.554-1.113 0.554-1.228 0-2.189-1.933-2.419-3.227zM2.682 10.148c0-0.058 0.026-0.107 0.052-0.125l3.171-1.76c0.191 0.159 0.234 0.177 0.272 0.204v0c0.373 0.248 0.715 0.372 1.182 0.372 0.497 0 0.95-0.211 1.348-0.535 0.023-0.018 0.047-0.034 0.068-0.052l0.452 0.254-1.885 1.048c-0.272 0.177-0.45 0.479-0.45 0.824 0 0.001 0 0.001 0 0.002v-0 2.4c0 0.117 0.053 0.228 0.146 0.3 0.24 0.189 0.512 0.382 0.793 0.562l0.041 0.025c-1.876 0.128-3.701-0.407-5.192-1.526v-1.993z"></path>
<path d="M24.468 16.484c-0.241-0.154-0.534-0.246-0.849-0.246-0.254 0-0.494 0.060-0.707 0.165l0.009-0.004-4.715 2.278c-0.017-0.884-0.737-1.595-1.624-1.596l-2.704 0.001c-1.333-1.159-3.037-1.868-4.586-1.906-1.006-0.025-2.246-0.043-3.489-0.049l-0.050-0v-0.772h-5.372v8.874h5.372v-1.063c1.473 0.845 5.347 2.963 7.185 2.963 0.042 0 0.083-0.001 0.122-0.004 3.232-0.181 10.857-5.546 11.36-5.903 0.479-0.282 0.796-0.796 0.797-1.383v-0c0-0.554-0.28-1.061-0.75-1.355zM4.99 22.465h-3.844v-7.346h3.844v7.346zM24.028 18.567c-0.013 0.007-0.025 0.014-0.035 0.022l0.001-0.001c-0.078 0.056-7.921 5.603-10.976 5.775-0.028 0.001-0.060 0.002-0.093 0.002-0 0-0 0-0 0v0c-1.612 0-5.543-2.121-7.171-3.083v-5.391c0.637 0.003 2.001 0.013 3.52 0.049 1.416 0.034 2.987 0.71 4.204 1.807l0.109 0.099 2.996-0.001c0.476 0.001 0.861 0.386 0.862 0.862v0c-0 0.476-0.386 0.862-0.862 0.862h-5.503v0.764h5.503c0.527 0 0.992-0.256 1.29-0.647l5.381-2.6c0.107-0.054 0.232-0.086 0.366-0.086 0.165 0 0.318 0.049 0.446 0.132l-0.003-0.002c0.236 0.147 0.391 0.405 0.391 0.699 0 0.003-0 0.006-0 0.010v-0c-0 0.311-0.17 0.582-0.422 0.726l-0.004 0.002zM12.418 9.84h0.764v0.709h-0.764zM12.418 11.253h0.764v0.709h-0.764zM12.418 12.666h0.764v0.709h-0.764z"></path>
</symbol>
<symbol id="icon-instagram" viewBox="0 0 32 32">
<path fill="#000" style="fill: var(--color1, #000)" d="M31.452 5.724c-0.291-2.729-2.447-4.885-5.176-5.176-6.844-0.731-13.709-0.731-20.552 0-2.729 0.291-4.885 2.447-5.176 5.176-0.731 6.844-0.731 13.708 0 20.553 0.291 2.729 2.447 4.885 5.176 5.176 6.844 0.73 13.709 0.73 20.553 0 2.729-0.291 4.884-2.447 5.176-5.176 0.731-6.844 0.731-13.708 0-20.552z"></path>
<path fill="#000" style="fill: var(--color1, #000)" d="M29.712 6.881c-0.258-2.422-2.171-4.335-4.593-4.593-6.073-0.648-12.165-0.648-18.238 0-2.422 0.259-4.335 2.171-4.593 4.593-0.648 6.073-0.648 12.165 0 18.238 0.259 2.422 2.171 4.335 4.593 4.593 6.073 0.648 12.165 0.648 18.238 0 2.422-0.258 4.335-2.171 4.593-4.593 0.648-6.073 0.648-12.164 0-18.238z"></path>
<path fill="#000" style="fill: var(--color1, #000)" d="M0.479 25.613c0.022 0.221 0.045 0.442 0.068 0.664 0.291 2.729 2.447 4.884 5.176 5.176 6.844 0.73 13.709 0.73 20.552 0 2.729-0.291 4.884-2.447 5.176-5.176 0.024-0.221 0.046-0.442 0.069-0.664z"></path>
<path fill="#000" style="fill: var(--color1, #000)" d="M31.452 26.276c0.349-3.083 0.547-6.657 0.547-10.277 0-0.27-0.001-0.539-0.003-0.808l0 0.041-7.314-7.314c-0.914-1.043-2.249-1.694-3.817-1.751-3.225-0.116-6.461-0.11-9.687 0-2.679 0.092-4.553 1.893-5.033 4.54-0.085 0.467-0.136 0.941-0.202 1.411v7.759c0.037 0.251 0.091 0.502 0.108 0.755 0.107 1.61 0.769 2.989 1.828 3.922l7.443 7.443c3.653 0.026 7.306-0.156 10.954-0.545 2.729-0.291 4.884-2.447 5.176-5.176z"></path>
<path fill="#000" style="fill: var(--color1, #000)" d="M31.452 26.276c-0.291 2.729-2.447 4.885-5.176 5.176-3.085 0.349-6.661 0.548-10.283 0.548-0.236 0-0.471-0.001-0.707-0.003l0.036 0-7.432-7.432c0.862 0.754 1.985 1.213 3.288 1.262 3.225 0.121 6.461 0.118 9.687 0.002 2.917-0.105 5.028-2.264 5.119-5.181 0.046-1.386 0.073-3.015 0.073-4.65s-0.026-3.264-0.079-4.887l0.006 0.237c-0.041-1.346-0.514-2.53-1.297-3.426l7.31 7.31c0.029 3.682-0.152 7.366-0.545 11.044z"></path>
<path fill="#000" style="fill: var(--color1, #000)" d="M19.776 12.535c-0.937-1.020-2.282-1.66-3.776-1.66-2.831 0-5.125 2.295-5.125 5.126 0 1.494 0.64 2.839 1.66 3.776l11.859 11.859c1.026-0.086 1.674-0.15 2.321-0.221l-0.438 0.039c2.729-0.291 4.885-2.447 5.176-5.176 0.032-0.208 0.097-0.856 0.155-1.506l0.027-0.376z"></path>
<path fill="#000" style="fill: var(--color1, #000)" d="M31.938 19.447l-9.544-9.544c-0.223-0.292-0.573-0.482-0.969-0.482-0.673 0-1.22 0.546-1.22 1.219 0 0.396 0.19 0.747 0.482 0.969l11.080 11.080c0.063-0.812 0.124-1.939 0.166-3.071l0.005-0.173z"></path>
<path fill="#000" style="fill: var(--color1, #000)" d="M5.943 12.119c0.067-0.471 0.117-0.944 0.202-1.411 0.48-2.647 2.354-4.447 5.033-4.54 3.226-0.111 6.461-0.117 9.687-0 2.916 0.105 5.028 2.264 5.119 5.181 0.097 3.097 0.097 6.202 0 9.3-0.091 2.917-2.202 5.076-5.119 5.181-3.225 0.116-6.462 0.119-9.687-0.002-2.917-0.11-4.933-2.274-5.128-5.195-0.017-0.253-0.071-0.503-0.108-0.755v-7.759zM16.003 24.101c1.476 0 2.954 0.044 4.428-0.010 2.311-0.086 3.733-1.465 3.787-3.774 0.032-1.286 0.050-2.8 0.050-4.318s-0.018-3.032-0.054-4.542l0.004 0.224c-0.054-2.309-1.477-3.72-3.787-3.769-1.31-0.029-2.853-0.046-4.4-0.046s-3.090 0.017-4.63 0.050l0.229-0.004c-2.293 0.048-3.719 1.431-3.781 3.714-0.038 1.303-0.059 2.835-0.059 4.373s0.022 3.070 0.064 4.598l-0.005-0.225c0.062 2.283 1.488 3.634 3.781 3.719 1.456 0.054 2.915 0.010 4.372 0.010z"></path>
<path fill="#fff" style="fill: var(--color2, #fff)" d="M5.943 12.119c0.067-0.471 0.117-0.944 0.202-1.411 0.48-2.647 2.354-4.447 5.033-4.54 3.226-0.111 6.461-0.117 9.687-0 2.916 0.105 5.028 2.264 5.119 5.181 0.097 3.097 0.097 6.202 0 9.3-0.091 2.917-2.202 5.076-5.119 5.181-3.225 0.116-6.462 0.119-9.687-0.002-2.917-0.11-4.933-2.274-5.128-5.195-0.017-0.253-0.071-0.503-0.108-0.755v-7.759zM16.003 24.101c1.476 0 2.954 0.044 4.428-0.010 2.311-0.086 3.733-1.465 3.787-3.774 0.032-1.286 0.050-2.8 0.050-4.318s-0.018-3.032-0.054-4.542l0.004 0.224c-0.054-2.309-1.477-3.72-3.787-3.769-1.31-0.029-2.853-0.046-4.4-0.046s-3.090 0.017-4.63 0.050l0.229-0.004c-2.293 0.048-3.719 1.431-3.781 3.714-0.038 1.303-0.059 2.835-0.059 4.373s0.022 3.070 0.064 4.598l-0.005-0.225c0.062 2.283 1.488 3.634 3.781 3.719 1.456 0.054 2.915 0.010 4.372 0.010z"></path>
<path fill="#fff" style="fill: var(--color2, #fff)" d="M16 10.875c-2.831 0-5.125 2.295-5.125 5.125s2.295 5.125 5.125 5.125c2.831 0 5.125-2.295 5.125-5.125s-2.295-5.125-5.125-5.125zM16 19.361c-1.856 0-3.361-1.505-3.361-3.361s1.505-3.361 3.361-3.361 3.361 1.505 3.361 3.361-1.505 3.361-3.361 3.361zM22.644 10.641c0 0.673-0.546 1.219-1.219 1.219s-1.22-0.546-1.22-1.219c0-0.674 0.546-1.22 1.22-1.22s1.219 0.546 1.219 1.22z"></path>
</symbol>
<symbol id="icon-insurance" viewBox="0 0 22 26">
<path d="M0.433 10.994c0 0.285-0.433 0.285-0.433 0 0-6.070 4.923-10.994 10.994-10.994 6.073 0 10.994 4.923 10.994 10.994 0 0.285-0.431 0.285-0.431 0 0-4.103-6.743-4.106-6.743 0 0 0.285-0.444 0.285-0.444 0 0-4.093-6.753-4.093-6.753 0 0 0.285-0.444 0.285-0.444 0 0-4.085-6.74-4.114-6.74 0zM7.212 9.4c0.117-2.362 0.488-4.479 1.028-6.096 0.431-1.285 0.976-2.26 1.594-2.808-4.635 0.506-8.388 4.020-9.226 8.577 1.596-2.302 5.281-2.118 6.605 0.327zM14.336 9.294c-0.119-2.271-0.48-4.303-0.999-5.852-1.339-4.010-3.348-4.010-4.687 0-0.519 1.549-0.877 3.582-0.999 5.852 1.44-2.447 5.245-2.447 6.685 0zM21.38 9.073c-0.836-4.557-4.588-8.071-9.226-8.577 0.62 0.548 1.163 1.523 1.594 2.808 0.54 1.617 0.911 3.735 1.028 6.096 1.331-2.458 5.027-2.603 6.605-0.327zM9.551 16.023v-2.232c-0.402 0.267-0.719 0.68-0.719 1.183 0 0.491 0.322 0.815 0.719 1.049zM9.984 16.716c-0.771-0.353-1.583-0.766-1.583-1.741 0-1.007 0.766-1.51 1.583-1.887v3.628zM12.437 19.392v2.258c0.407-0.27 0.727-0.685 0.727-1.189 0-0.496-0.327-0.831-0.727-1.069zM12.006 18.697c0.773 0.358 1.591 0.784 1.591 1.765 0 1.010-0.771 1.513-1.591 1.887v-3.652z"></path>
<path d="M12.437 11.251c1.775 0.41 3.6 1.739 3.6 3.724 0 1.7-2.873 1.638-2.873 0 0-0.506-0.319-0.921-0.727-1.189v3.177c1.643 0.537 3.605 1.5 3.605 3.498 0 1.988-1.825 3.314-3.605 3.722-0.008 1.892-2.881 1.889-2.886-0.003-1.012-0.234-1.892-0.706-2.528-1.331-0.667-0.659-1.061-1.487-1.061-2.388 0-1.674 2.87-1.674 2.87 0 0 0.501 0.317 0.914 0.719 1.181v-3.174c-1.63-0.527-3.602-1.518-3.602-3.498 0-1.988 1.824-3.314 3.602-3.722 0.008-1.892 2.881-1.889 2.886 0.003zM9.984 11.256v0.345c-1.69 0.335-3.605 1.417-3.605 3.369 0 1.876 2.102 2.717 3.605 3.182v4.194c-0.812-0.371-1.583-0.872-1.583-1.884 0-1.106-2.009-1.106-2.009 0 0 0.781 0.348 1.503 0.934 2.079 0.745 0.737 1.648 1.087 2.658 1.287v0.348c0 1.331 2.022 1.331 2.022 0v-0.345c1.695-0.337 3.602-1.42 3.602-3.369 0-1.895-2.097-2.709-3.602-3.184v-4.191c0.815 0.371 1.591 0.872 1.591 1.889 0 1.077 2.006 1.121 2.006 0 0-1.949-1.905-3.034-3.597-3.371v-0.348c0-1.331-2.022-1.331-2.022 0z"></path>
</symbol>
<symbol id="icon-Mobile_Learning" viewBox="0 0 26 26">
<path d="M23.211 0.668h-11.845c-0.772 0.001-1.398 0.626-1.398 1.398v4.903l-8.8 3.693c-0.104 0.044-0.176 0.146-0.176 0.264 0 0.104 0.055 0.195 0.138 0.245l0.001 0.001 1.123 0.672v7.157c-0.579 0.136-1.004 0.648-1.004 1.259v0.69c0 0.158 0.128 0.287 0.287 0.287h2.010c0.158 0 0.287-0.128 0.287-0.287v0-0.69c-0.001-0.611-0.426-1.122-0.996-1.256l-0.009-0.002v-6.815l0.887 0.531c-0.027 0.204-0.003-0.357-0.013 3.332 0 1.213 3.106 1.862 6.266 1.9v5.586c0 0.288 0.088 0.557 0.24 0.779 0.254 0.374 0.678 0.616 1.158 0.617h11.845c0.771-0.001 1.396-0.626 1.397-1.397v-0c0 0.038-0.002-1.183 0-21.469 0-0.76-0.629-1.398-1.396-1.398zM3.259 20.261v0.404h-1.437v-0.404c0-0.397 0.322-0.72 0.716-0.72 0.397 0 0.72 0.323 0.72 0.72zM23.211 24.357h-11.845c-0.284 0-0.535-0.144-0.684-0.362-0.088-0.129-0.141-0.288-0.141-0.459 0-0 0-0.001 0-0.001v0-1.936h13.491v1.937c-0.004 0.452-0.37 0.817-0.821 0.822h-0zM24.033 21.026h-13.492v-3.074c1.543-0.018 6.27-0.357 6.27-1.901-0.002-2.317 0.004-3.257-0.008-3.337l2.574-1.541c0.084-0.051 0.139-0.142 0.139-0.246 0-0.118-0.072-0.22-0.174-0.264l-0.002-0.001-8.8-3.693v-2.393h13.492v16.45zM10.255 14.148c-1.589 0-4.65 0.206-5.98 1.074 0.008-2.656-0.092-2.483 0.235-2.708 0.826-0.608 3.188-1.033 5.745-1.033 1.115 0 5.984 0.306 5.984 1.337v2.403c-1.342-0.876-4.387-1.074-5.984-1.074zM10.542 2.066c0-0.454 0.369-0.824 0.824-0.824h11.845c0.455 0 0.822 0.374 0.822 0.824v1.936h-13.491v-1.936zM10.255 7.471l8.343 3.501-2.067 1.237c-1.099-1.090-4.734-1.301-6.275-1.301-1.543 0-5.178 0.212-6.275 1.301l-2.068-1.237 8.343-3.501zM4.275 16.051c0-0.464 2.054-1.33 5.98-1.33 3.928 0 5.984 0.866 5.984 1.33s-2.055 1.33-5.984 1.33c-3.926 0-5.98-0.865-5.98-1.33z"></path>
<path d="M17.288 22.031c-0.523 0-0.948 0.424-0.948 0.948s0.425 0.948 0.948 0.948c0.523 0 0.948-0.425 0.948-0.948s-0.425-0.948-0.948-0.948zM17.288 23.354c-0.003 0-0.008 0-0.012 0-0.207 0-0.375-0.168-0.375-0.375s0.168-0.375 0.375-0.375c0.004 0 0.009 0 0.013 0l-0.001-0c0.202 0.007 0.363 0.172 0.363 0.375s-0.161 0.368-0.363 0.375h-0.001zM16.195 2.336h2.186v0.573h-2.186z"></path>
</symbol>
<symbol id="icon-open_book" viewBox="0 0 26 26">
<path d="M3.719 6.407h7.654v0.573h-7.654zM4.865 8.544h6.508v0.573h-6.508zM3.719 10.681h7.654v0.573h-7.654zM4.865 12.818h6.508v0.573h-6.508zM3.719 14.955h7.654v0.573h-7.654zM4.865 17.092h6.508v0.573h-6.508zM14.226 6.407h7.654v0.573h-7.654zM14.226 8.544h6.508v0.573h-6.508zM14.226 10.681h7.654v0.573h-7.654zM14.226 12.818h6.508v0.573h-6.508zM14.226 14.955h7.654v0.573h-7.654zM14.226 17.092h6.508v0.573h-6.508z"></path>
<path d="M24.645 5.754h-1.051v-1.578c0-0.158-0.128-0.287-0.287-0.287v0h-8.566c-0.003 0-0.007-0-0.010-0-0.824 0-1.543 0.45-1.925 1.117l-0.006 0.011c-0.388-0.678-1.107-1.128-1.931-1.128-0.003 0-0.007 0-0.010 0h-8.566c-0.158 0-0.287 0.128-0.287 0.287v0 1.578h-1.051c-0.158 0-0.287 0.128-0.287 0.287v0 15.383c0 0.158 0.128 0.287 0.287 0.287h23.69c0.158 0 0.287-0.128 0.287-0.287v0-15.383c0-0.158-0.128-0.287-0.287-0.287v0zM14.741 4.463h8.28v15.349h-8.891c-0.394 0-0.788 0.166-1.043 0.382v-14.080c0-0.002 0-0.003 0-0.005 0-0.909 0.737-1.645 1.645-1.645 0.003 0 0.006 0 0.010 0h-0.001zM2.579 4.463h8.28c0.003-0 0.007-0 0.011-0 0.887 0 1.61 0.705 1.64 1.585l0 0.003c0.001 0.012 0.002 0.051 0.004 0.063v14.078c-0.254-0.214-0.644-0.381-1.039-0.381h-8.895v-15.349zM1.242 6.327h0.764v13.771c0 0.158 0.128 0.287 0.287 0.287h9.182c0.47 0.002 0.866 0.316 0.992 0.745l0.002 0.007h-11.227v-14.81zM24.358 21.137h-11.226c0.127-0.438 0.525-0.753 0.996-0.753 0.001 0 0.001 0 0.002 0h9.178c0.158 0 0.287-0.128 0.287-0.287v0-13.771h0.764v14.81z"></path>
</symbol>
<symbol id="icon-study_program" viewBox="0 0 26 26">
<path d="M23.727 4.675l-0-0.002c-0.005-0.013-0.011-0.024-0.018-0.034l0 0.001-0.002-0.002c-0.008-0.012-0.016-0.022-0.025-0.031l-3.537-3.537c-0.009-0.009-0.019-0.017-0.029-0.024l-0.001-0-0.007-0.004c-0.007-0.005-0.016-0.010-0.025-0.014l-0.001-0.001c-0.003-0.001-0.005-0.003-0.008-0.003-0.021-0.009-0.046-0.014-0.072-0.015h-0l-0.004-0h-15.582c-0.115 0-0.209 0.094-0.209 0.209 0 0 0 0 0 0v0 21.573c0 0 0 0 0 0 0 0.014 0.002 0.028 0.004 0.042l-0-0.001c0.001 0.006 0.003 0.011 0.005 0.017 0.002 0.007 0.004 0.015 0.007 0.022s0.006 0.013 0.010 0.019c0.003 0.005 0.006 0.012 0.009 0.017 0.007 0.011 0.015 0.020 0.024 0.029 0.001 0.001 0.001 0.002 0.002 0.002l1.593 1.593c0.038 0.038 0.090 0.061 0.148 0.061s0.11-0.023 0.148-0.061l1.446-1.445 1.445 1.445c0.038 0.038 0.090 0.062 0.148 0.062s0.11-0.024 0.148-0.062v0l1.445-1.445 1.446 1.445c0.038 0.038 0.090 0.061 0.148 0.061s0.11-0.023 0.148-0.061l1.445-1.445 1.445 1.445c0.038 0.038 0.090 0.061 0.148 0.061s0.11-0.023 0.148-0.061v0l1.446-1.445 1.445 1.445c0.038 0.038 0.090 0.062 0.148 0.062s0.11-0.024 0.148-0.061v0l1.445-1.445 1.446 1.445c0.038 0.038 0.090 0.061 0.148 0.061s0.11-0.023 0.148-0.061v0l1.593-1.593c0.003-0.003 0.005-0.007 0.008-0.010 0.006-0.007 0.012-0.014 0.017-0.021s0.008-0.015 0.012-0.022c0.003-0.005 0.005-0.009 0.007-0.014 0.004-0.009 0.006-0.019 0.009-0.029 0.001-0.003 0.003-0.006 0.003-0.010 0.003-0.013 0.004-0.028 0.004-0.043v-18.034c-0.001-0.029-0.007-0.056-0.017-0.081l0.001 0.001zM20.206 1.723l2.823 2.823h-2.823v-2.823zM23.325 22.703l-1.384 1.384-1.446-1.445c-0.038-0.038-0.090-0.061-0.148-0.061s-0.11 0.023-0.148 0.061v0l-1.445 1.445-1.445-1.445c-0.038-0.038-0.090-0.061-0.148-0.061s-0.11 0.023-0.148 0.061v0l-1.446 1.445-1.445-1.445c-0.038-0.038-0.090-0.061-0.148-0.061s-0.11 0.023-0.148 0.061v0l-1.445 1.445-1.446-1.445c-0.038-0.038-0.090-0.061-0.148-0.061s-0.11 0.023-0.148 0.061v0l-1.445 1.445-1.445-1.445c-0.038-0.038-0.090-0.061-0.148-0.061s-0.11 0.023-0.148 0.061v0l-1.446 1.445-1.384-1.384v-21.277h15.164v3.328c0 0.115 0.094 0.209 0.209 0.209h3.328l0 17.74z"></path>
<path d="M6.183 3.404h6.847c0.116 0 0.209-0.094 0.209-0.209s-0.094-0.209-0.209-0.209h-6.847c-0.115 0-0.209 0.094-0.209 0.209s0.094 0.209 0.209 0.209v0zM6.183 4.697h10.98c0.116 0 0.209-0.094 0.209-0.209s-0.094-0.209-0.209-0.209h-10.98c-0.115 0-0.209 0.094-0.209 0.209s0.094 0.209 0.209 0.209v0zM5.974 5.858v6.77c0 0.115 0.093 0.209 0.209 0.209h15.583c0.115 0 0.209-0.094 0.209-0.209 0-0 0-0 0-0v0-6.77c0-0 0-0 0-0 0-0.115-0.094-0.209-0.209-0.209 0 0 0 0 0 0h-15.583c-0.115 0-0.209 0.094-0.209 0.209v0zM10.595 6.067h10.961v1.799h-10.961v-1.799zM10.595 8.285h10.961v1.799h-10.961v-1.799zM10.595 10.502h10.961v1.917h-10.961v-1.917zM6.392 6.067h3.785v1.799h-3.785v-1.799zM6.392 8.285h3.785v1.799h-3.785v-1.799zM6.392 10.502h3.785v1.917h-3.785v-1.917zM21.766 13.778h-15.583c-0.115 0-0.209 0.094-0.209 0.209v0 6.77c0 0.115 0.094 0.209 0.209 0.209s0.209-0.094 0.209-0.209v0-2.126h3.785v2.126c0 0.115 0.094 0.209 0.209 0.209s0.209-0.094 0.209-0.209v0-2.126h10.961v2.126c0 0.115 0.094 0.209 0.209 0.209s0.209-0.094 0.209-0.209v0-6.77c0-0 0-0.001 0-0.001 0-0.115-0.093-0.208-0.208-0.208-0 0-0 0-0 0v0zM10.177 18.213h-3.785v-1.798h3.785v1.798zM10.177 15.996h-3.785v-1.799h3.785v1.799zM21.556 18.213h-10.961v-1.798h10.961v1.798zM21.556 15.996h-10.961v-1.799h10.961v1.799zM3.215 1.008c-0.115 0-0.209 0.094-0.209 0.209v0 21.573c0 0.116 0.094 0.209 0.209 0.209s0.209-0.094 0.209-0.209v0-21.573c0-0.115-0.094-0.209-0.209-0.209v0zM2.065 1.008c-0.115 0-0.209 0.094-0.209 0.209v0 21.573c0.004 0.112 0.096 0.202 0.209 0.202s0.205-0.090 0.209-0.201v-21.573c0-0 0-0 0-0 0-0.115-0.094-0.209-0.209-0.209 0 0 0 0 0 0v0z"></path>
</symbol>
<symbol id="icon-tel" viewBox="0 0 26 26">
<path d="M3.725 0.503c-0.412 0.019-0.817 0.195-1.113 0.521l-2.076 2.283c0.003-0.007-0.008-0.006-0.067 0.077-0.030 0.041-0.054 0.087-0.071 0.138l-0.001 0.004c-0.846 2.69-0.279 5.651 1.101 8.466s3.58 5.51 6.106 7.721c2.526 2.212 5.377 3.941 8.096 4.799s5.353 0.847 7.305-0.571c0.023-0.016 0.043-0.033 0.061-0.051l-0 0c0.050-0.051 0.052-0.058 0.044-0.049l0.008-0.010 2.066-2.273c0.258-0.285 0.416-0.665 0.416-1.082 0-0.47-0.201-0.893-0.521-1.189l-4.903-4.458c-0.285-0.258-0.665-0.416-1.082-0.416-0.47 0-0.893 0.201-1.189 0.521l-2.218 2.439c-1.8-0.522-3.339-1.405-4.819-2.751s-2.506-2.796-3.195-4.538l2.216-2.438c0.259-0.285 0.417-0.666 0.417-1.083 0-0.47-0.201-0.893-0.521-1.189l-4.902-4.458c-0.284-0.258-0.662-0.416-1.078-0.416-0.028 0-0.056 0.001-0.084 0.002l0.004-0zM3.774 1.504c0.007-0 0.015-0 0.023-0 0.158 0 0.302 0.061 0.409 0.161l4.899 4.456c0.253 0.229 0.27 0.596 0.041 0.849l-2.451 2.693c-0.081 0.089-0.131 0.208-0.131 0.338 0 0.062 0.011 0.122 0.032 0.177l-0.001-0.003c0.744 2.029 1.944 3.694 3.595 5.196s3.42 2.539 5.51 3.087c0.039 0.011 0.083 0.017 0.13 0.017 0.147 0 0.279-0.063 0.371-0.164l0-0 2.451-2.694c0.108-0.123 0.267-0.201 0.443-0.201 0.157 0 0.3 0.061 0.405 0.162l-0-0 4.902 4.457c0.252 0.23 0.269 0.596 0.039 0.848l-2.048 2.253c-1.602 1.151-3.861 1.215-6.389 0.416-2.538-0.8-5.294-2.461-7.733-4.595s-4.561-4.741-5.866-7.403c-1.291-2.636-1.759-5.3-1.049-7.648l2.001-2.199c0.103-0.116 0.25-0.192 0.414-0.201l0.002-0z"></path>
</symbol>
<symbol id="icon-vk" viewBox="0 0 32 32">
<path fill="#436eab" style="fill: var(--color3, #436eab)" d="M27.541 18.46c1.061 1.036 2.182 2.011 3.134 3.152 0.421 0.507 0.819 1.030 1.123 1.619 0.432 0.836 0.041 1.757-0.709 1.807l-4.662-0.002c-1.202 0.1-2.162-0.384-2.968-1.206-0.645-0.657-1.243-1.357-1.864-2.037-0.254-0.278-0.521-0.539-0.839-0.746-0.636-0.413-1.189-0.287-1.552 0.377-0.37 0.675-0.454 1.423-0.491 2.175-0.050 1.098-0.382 1.386-1.484 1.437-2.357 0.111-4.593-0.245-6.671-1.434-1.832-1.048-3.252-2.528-4.489-4.203-2.407-3.261-4.25-6.845-5.907-10.53-0.373-0.83-0.1-1.276 0.816-1.291 1.521-0.030 3.041-0.027 4.564-0.002 0.618 0.009 1.027 0.364 1.266 0.947 0.823 2.023 1.83 3.948 3.093 5.732 0.337 0.475 0.68 0.95 1.168 1.284 0.541 0.37 0.952 0.248 1.207-0.355 0.161-0.382 0.232-0.793 0.268-1.202 0.12-1.407 0.136-2.812-0.075-4.214-0.13-0.875-0.623-1.442-1.496-1.607-0.446-0.084-0.379-0.25-0.164-0.505 0.375-0.439 0.727-0.712 1.43-0.712h5.269c0.829 0.164 1.014 0.536 1.127 1.371l0.005 5.852c-0.009 0.323 0.161 1.282 0.743 1.496 0.466 0.152 0.773-0.22 1.052-0.516 1.261-1.339 2.162-2.921 2.966-4.559 0.357-0.72 0.664-1.469 0.961-2.216 0.22-0.555 0.566-0.828 1.191-0.816l5.071 0.005c0.15 0 0.302 0.002 0.448 0.027 0.854 0.146 1.089 0.513 0.825 1.348-0.416 1.309-1.225 2.4-2.016 3.496-0.846 1.17-1.75 2.3-2.589 3.477-0.77 1.075-0.709 1.617 0.248 2.55z"></path>
</symbol>
</defs>
</svg>
