<svg xmlns="http://www.w3.org/2000/svg" viewBox="0 0 67 83.75"><path d="M5.02 26.559v5.71c0 .306.14.595.381.786a22.384 22.384 0 0013.788 4.763c1.494 0 2.988-.156 4.45-.45a24.237 24.237 0 009.861 2.08c3.443 0 6.759-.705 9.862-2.08 6.233 1.258 12.875-.094 18.236-4.313.24-.19.381-.48.381-.787v-5.71c0-.837-.416-1.601-1.159-2.07L53.021 20.1c1.706-2.165 2.978-5.247 3.199-7.891.647-4.55-3.062-9.37-8.4-9.37-2.246 0-4.38.924-5.946 2.474-.054.054-.116.099-.168.154-.049.05-.088.11-.134.161-.032.034-.059.072-.09.107-1.525-2.782-4.458-4.502-7.914-4.502-.335 0-.665.023-.992.057-.02-.002-.036-.012-.057-.012a3.73 3.73 0 00-.787.11c-.032.009-.054.03-.083.042a9.04 9.04 0 00-6.076 4.348 8.42 8.42 0 00-6.41-2.938c-7.882 0-11.379 9.3-5.158 17.304l-7.87 4.37a2.404 2.404 0 00-1.115 2.045zm38.323 8.61c-.17.083-.337.171-.507.249l-.004.002a22.19 22.19 0 01-9.332 2.028 22.26 22.26 0 01-13.46-4.492v-5.788c0-.197.096-.372.206-.445l9.16-5.091c1.14.967 2.595 1.677 4.104 1.677 1.453 0 3.022-.72 4.139-1.701l9.048 5.081a.56.56 0 01.263.479v5.787a22.36 22.36 0 01-3.617 2.215zm16.451-8.966a.408.408 0 01.185.356v5.217c-3.97 2.98-8.746 4.332-13.585 3.992a26.607 26.607 0 002.183-1.533c.241-.19.383-.48.383-.787v-6.28c0-.877-.44-1.685-1.23-2.191l-4.807-2.702 1.169-.647c1.417 1.156 2.635 1.5 3.727 1.5 1.336 0 2.743-.656 3.787-1.53l8.188 4.605zM47.819 4.84c2.784 0 5.23 1.82 6.093 4.32-1.68-.2-3.322-1.028-4.51-2.303a1 1 0 00-1.59.169c-1.141 1.911-3.011 3.187-5.138 3.55v-.007a9.84 9.84 0 00-.066-1.317l-.015-.134c-.065-.5-.215-1.127-.245-1.227 1.135-1.82 3.245-3.051 5.471-3.051zm-5.364 7.776a9.365 9.365 0 006.38-3.554c1.548 1.27 3.51 2.038 5.45 2.13-.015 3.615-2.967 9.937-6.466 9.937-2.696 0-4.999-3.857-5.859-6.53.219-.688.378-1.35.495-1.983zm.203 7.52l-1.787.99-1.804-1.014a16.05 16.05 0 001.808-2.85 14.649 14.649 0 001.783 2.874zm-2.696-5.865c-.965 2.877-3.438 7.039-6.452 7.039-3.514 0-6.506-5.776-7.076-9.47.152-.038 4.9.255 8.167-4.035 1.658 1.387 3.895 2.305 6.071 2.396.026 1.304-.29 2.836-.71 4.07zM33.568 3.233c5.606 0 6.673 4.825 6.76 4.925-2.032-.206-3.886-1.202-5.168-2.572a1 1 0 00-1.592.174c-1.11 1.878-2.852 3.203-4.868 3.767a8.692 8.692 0 01-2.352.31c.274-3.675 3.219-6.604 7.22-6.604zM26.13 17.242a15.962 15.962 0 001.84 2.9l-1.765.982-1.829-1.028a15.62 15.62 0 001.754-2.854zM19.162 4.84c2.268 0 4.346 1.15 5.504 3.053-.058.201-.215 1.004-.235 1.104a7.401 7.401 0 01-3.672-2.143.999.999 0 00-1.59.174 7.486 7.486 0 01-6.407 3.66c.318-3.28 3.061-5.848 6.4-5.848zm-6.312 7.843a9.494 9.494 0 007.345-3.622A9.326 9.326 0 0024.34 11c.06 1.16.361 2.568.707 3.607-.552 1.694-1.612 3.712-2.926 5.053-.008.008-.02.012-.027.02-.823.867-1.992 1.45-2.912 1.45-3.215 0-5.73-5.058-6.332-8.446zM7.02 26.56c0-.152.067-.28.135-.327l8.3-4.606c.499.415.613.462.713.535v.001c.977.65 1.872.973 3.094.973 1.3 0 2.485-.551 3.527-1.4.059-.046.122-.09.178-.137l1.184.666-4.933 2.744a2.561 2.561 0 00-1.178 2.16v6.28c0 .307.14.597.383.786a26.797 26.797 0 002.184 1.535c-4.91.336-9.686-1.065-13.588-3.993V26.56z"/><path d="M64.038 43.142a4.157 4.157 0 00-4.048-.222l-12.34 5.962a4.256 4.256 0 00-4.25-4.178l-7.076.002c-3.489-3.033-7.948-4.89-12.003-4.988a502.055 502.055 0 00-9.261-.13v-2.02H1v23.226h14.06v-2.781c3.855 2.212 13.993 7.754 18.804 7.754.11 0 .216-.003.319-.01 8.46-.474 28.416-14.516 29.732-15.448A4.193 4.193 0 0066 46.688c0-1.45-.733-2.776-1.962-3.546zM13.06 58.794H3V39.568h10.06v19.226zm49.826-10.2a.848.848 0 00-.09.055c-.205.147-20.731 14.663-28.725 15.113a4.91 4.91 0 01-.243.006c-4.22 0-14.508-5.551-18.768-8.069v-14.11c1.667.007 5.236.034 9.213.129 3.705.089 7.817 1.857 11.002 4.73l.286.258 7.84-.002a2.259 2.259 0 012.256 2.256 2.259 2.259 0 01-2.256 2.257H28.998v2h14.403c1.38 0 2.597-.671 3.375-1.693L60.86 44.72a2.142 2.142 0 012.116.115A2.145 2.145 0 0164 46.688a2.19 2.19 0 01-1.114 1.906zM32.5 25.753h2v1.855h-2zM32.5 29.451h2v1.855h-2zM32.5 33.149h2v1.855h-2z"/></svg>