<svg xmlns="http://www.w3.org/2000/svg" width="21" height="26"><path d="M9.051 16.854c-.209.833-.42 1.706-.638 2.56-.215.842-.405 1.696-.718 2.47-.519 1.281-1.178 2.519-2.043 3.521-.575.667-.453.401-.626.365-.132-.028-.143-.157-.169-.345-.141-1.018-.045-2.195.007-3.339.06-1.304.334-2.388.589-3.471.484-2.064.946-4.087 1.435-6.164.032-.138.12-.366.09-.445-.222-.577-.366-1.095-.429-1.701a5.415 5.415 0 01.139-1.943c.277-1.058.913-1.995 1.894-2.338.624-.216 1.315-.118 1.735.132.432.259.729.667.867 1.246.148.615.039 1.351-.08 1.891-.267 1.219-.618 2.134-.937 3.31-.158.583-.337 1.182-.189 1.812.136.578.437.976.847 1.275.426.31.93.479 1.625.455 1.228-.043 2.081-.828 2.651-1.568.913-1.185 1.465-2.784 1.675-4.686.067-.614.117-1.319.07-2.014-.088-1.284-.489-2.317-1.127-3.117-.606-.763-1.466-1.369-2.512-1.711-1.037-.338-2.472-.451-3.747-.233-2.318.397-3.952 1.714-4.915 3.533a7.082 7.082 0 00-.837 3.41c0 1.051.259 1.865.678 2.5.133.201.328.367.458.597.185.326-.028.811-.119 1.164-.11.425-.122 1.012-.618 1.022-.206.004-.464-.146-.638-.243-1.305-.721-2.097-2.033-2.422-3.734a8.921 8.921 0 010-3.238 9.232 9.232 0 014.396-6.144C6.559 1.023 7.818.56 9.35.337a16.62 16.62 0 011.605-.132 9.65 9.65 0 014.326.81 8.839 8.839 0 012.98 2.146c.838.915 1.448 1.979 1.834 3.309.202.692.398 1.432.398 2.287 0 .858-.181 1.613-.308 2.368-.474 2.828-1.819 5.141-3.838 6.458a6.643 6.643 0 01-1.754.809c-.667.194-1.428.34-2.243.283a4.586 4.586 0 01-1.983-.577c-.54-.305-.994-.679-1.316-1.244z"/></svg>