<svg xmlns="http://www.w3.org/2000/svg" width="26" height="22"><path d="M17.513.601c2.034-.036 3.117.705 4.151 1.647.878-.075 2.019-.565 2.691-.907l.653-.357c-.384 1.037-.904 1.849-1.704 2.466-.178.136-.354.321-.577.408v.013c1.14-.011 2.08-.526 2.973-.805v.013c-.469.745-1.104 1.502-1.781 2.044l-.82.651c.015 1.207-.018 2.359-.243 3.373-1.312 5.895-4.788 9.897-10.289 11.612-1.976.615-5.168.868-7.432.306-1.122-.278-2.136-.593-3.087-1.009a12.156 12.156 0 01-1.487-.767l-.461-.28c.51.015 1.108.156 1.678.063.517-.083 1.023-.061 1.5-.165 1.188-.261 2.243-.606 3.151-1.138.441-.258 1.11-.56 1.423-.932-.59.01-1.125-.127-1.563-.281-1.699-.6-2.688-1.703-3.332-3.36.515.057 1.998.191 2.345-.102-.648-.036-1.271-.411-1.717-.69-1.367-.855-2.481-2.289-2.473-4.496l.538.255c.344.145.693.222 1.102.307.173.036.519.137.718.063h-.026c-.264-.307-.695-.512-.961-.843C1.606 6.601.785 4.924 1.304 2.926c.132-.507.341-.954.564-1.367l.026.012c.102.214.33.371.474.55.448.555 1 1.054 1.563 1.494 1.918 1.5 3.645 2.422 6.419 3.104a9.983 9.983 0 002.358.307c-.236-.687-.16-1.8.025-2.465.468-1.674 1.483-2.879 2.973-3.526a6.406 6.406 0 011.166-.358l.641-.076z"/></svg>