<svg xmlns="http://www.w3.org/2000/svg" 
width="32" height="31">
<path fill-rule="evenodd"  fill="rgb(149, 225, 211)"
 d="M32 16.5a1.5 1.5 0 01-1.5 1.499 1.49 1.49 0 01-1.02-.405l-.003.004L16.038 4.159 16 4.122 2.554 17.568h-.001a1.5 1.5 0 11-2.092-2.149L14.919.96C15.192.677 15.575.5 16 .5h.001c.026 0 .052 0 .079.002l.012.001.068.005.004.001c.367.04.694.212.933.468l.001-.001L23 6.878V5.5a1.5 1.5 0 113 0v4.378l5.598 5.598-.004.004c.25.268.406.625.406 1.02zM29 19v10.5a1.5 1.5 0 01-1.5 1.5h-3V19h-6v12h-14A1.5 1.5 0 013 29.5V19L16 6l13 13zm-15.5 0h-6v6h6v-6z"/></svg>