<svg xmlns="http://www.w3.org/2000/svg" viewBox="0 0 32 32"><path data-name="BOOK 2" d="M31.065 25.89l-14.471 5.99a1.53 1.53 0 01-1.188 0L.935 25.89A1.5 1.5 0 010 24.5v-23A1.5 1.5 0 011.5 0a1.55 1.55 0 01.573.11.012.012 0 00.013.01L16 5.88 29.911.12a.012.012 0 00.013-.01 1.55 1.55 0 01.573-.11 1.5 1.5 0 011.5 1.5v23a1.5 1.5 0 01-.932 1.39zM14.5 8.5L3 3.74V23.5l11.5 4.76V8.5zM29 3.74L17.5 8.5v19.76L29 23.5V3.74zm-9.121 6.89l5.5-2.5A1.593 1.593 0 0126 8a1.5 1.5 0 01.621 2.87l-5.5 2.5a1.6 1.6 0 01-.621.13 1.5 1.5 0 01-.621-2.87zm0 5.5l5.5-2.5A1.593 1.593 0 0126 13.5a1.5 1.5 0 01.621 2.87l-5.5 2.5v-.01a1.445 1.445 0 01-.621.14 1.5 1.5 0 01-.621-2.87zm0 5.5l5.5-2.5A1.593 1.593 0 0126 19a1.5 1.5 0 01.621 2.87l-5.5 2.5a1.6 1.6 0 01-.621.13 1.5 1.5 0 01-.621-2.87zM6 8a1.6 1.6 0 01.621.13l5.5 2.5a1.5 1.5 0 01-.621 2.87 1.593 1.593 0 01-.621-.13l-5.5-2.5A1.5 1.5 0 016 8zm0 5.5a1.6 1.6 0 01.621.13l5.5 2.5A1.5 1.5 0 0111.5 19a1.439 1.439 0 01-.621-.14v.01l-5.5-2.5A1.5 1.5 0 016 13.5zM6 19a1.6 1.6 0 01.621.13l5.5 2.5a1.5 1.5 0 01-.621 2.87 1.593 1.593 0 01-.621-.13l-5.5-2.5A1.5 1.5 0 016 19z" fill="#95e1d3" fill-rule="evenodd"/></svg>