<svg xmlns="http://www.w3.org/2000/svg" viewBox="0 0 32 30.5"><path d="M32 16a1.493 1.493 0 01-2.52 1.09v.01L16.041 3.66l-.038-.04L2.557 17.07a1.525 1.525 0 01-1.053.43 1.5 1.5 0 01-1.5-1.5 1.479 1.479 0 01.461-1.08L14.923.46A1.51 1.51 0 0116.004 0h.092c.023 0 .045.01.068.01a1.479 1.479 0 01.933.47l5.9 5.9V5a1.5 1.5 0 013 0v4.38l5.6 5.6A1.485 1.485 0 0132 16zm-3 2.5V29a1.5 1.5 0 01-1.5 1.5h-3v-12h-6v12h-14A1.5 1.5 0 013 29V18.5l13-13zm-15.5 0h-6v6h6v-6z" fill="#95e1d3" fill-rule="evenodd"/></svg>