<svg xmlns="http://www.w3.org/2000/svg" viewBox="0 0 19.594 25.62"><path d="M8.145 16.63c-.209.84-.42 1.71-.638 2.56a18.96 18.96 0 01-.718 2.47 12.691 12.691 0 01-2.043 3.53c-.575.66-.453.4-.626.36-.132-.03-.143-.16-.169-.34a19.314 19.314 0 01.007-3.34 18.15 18.15 0 01.589-3.48c.484-2.06.946-4.08 1.435-6.16a1.422 1.422 0 00.09-.44 6.471 6.471 0 01-.429-1.7 5.448 5.448 0 01.139-1.95A3.224 3.224 0 017.676 5.8a2.206 2.206 0 011.735.14 1.851 1.851 0 01.867 1.24 4.463 4.463 0 01-.08 1.89c-.267 1.22-.618 2.14-.937 3.31a3.648 3.648 0 00-.189 1.81 2.119 2.119 0 00.847 1.28 2.493 2.493 0 001.625.46 3.572 3.572 0 002.651-1.57 9.309 9.309 0 001.675-4.69 11.565 11.565 0 00.07-2.01 5.473 5.473 0 00-1.127-3.12 5.282 5.282 0 00-2.512-1.71 8.285 8.285 0 00-3.747-.23 6.613 6.613 0 00-4.915 3.53 7.085 7.085 0 00-.837 3.41 4.438 4.438 0 00.678 2.5c.133.2.328.37.458.6a1.718 1.718 0 01-.119 1.16c-.11.43-.122 1.01-.618 1.02a1.377 1.377 0 01-.638-.24 5.108 5.108 0 01-2.422-3.74 8.878 8.878 0 010-3.23 9.244 9.244 0 014.4-6.15A10.4 10.4 0 018.448.12a13.322 13.322 0 011.605-.13 9.627 9.627 0 014.326.8 8.862 8.862 0 012.98 2.15 8.14 8.14 0 011.834 3.31 7.922 7.922 0 01.4 2.29 13.861 13.861 0 01-.308 2.37 9.315 9.315 0 01-3.838 6.45 6.924 6.924 0 01-4 1.1 4.642 4.642 0 01-1.983-.58 3.306 3.306 0 01-1.319-1.25z"/></svg>